<svg width="100" height="100" viewBox="0 0 100 100" fill="none" xmlns="http://www.w3.org/2000/svg">
<path fill-rule="evenodd" clip-rule="evenodd" d="M50 100C77.6143 100 100 77.6143 100 50C100 22.3857 77.6143 0 50 0C22.3857 0 0 22.3857 0 50C0 77.6143 22.3857 100 50 100ZM56.7661 75.4441C60.2974 76.9869 63.9658 77.5012 67.3262 74.2441L67.2915 74.2784C71.5088 70.5071 74.0459 65.3987 76 60.2559C66.1943 56.3131 63.6577 42.2222 74.3545 35.8109C71.7832 32.1082 67.8745 30.051 62.6973 29.6396C59.9395 29.4426 57.3633 30.3356 54.8086 31.2212C53.3613 31.7228 51.9209 32.222 50.458 32.5195C49.3101 32.4324 48.0693 31.9694 46.6685 31.4467C44.7646 30.7361 42.5645 29.915 39.8979 29.7767C20.9043 30.7367 18.436 56.9989 35.167 74.2441C38.1152 76.9526 40.7212 77.5697 45.6582 75.4441C49.6006 73.7983 53.0293 73.8669 56.7661 75.4441ZM50.1147 29.571C49.6006 21.9255 55.8062 15.6171 62.9375 15C63.9316 23.8455 54.915 30.4281 50.1147 29.571Z" fill="#D9D9D9"/>
</svg>
