<svg width="88" height="88" viewBox="0 0 88 88" fill="none" xmlns="http://www.w3.org/2000/svg">
<rect x="5" y="10" width="78" height="69" fill="#3B5F41"/>
<path d="M58.5742 31.0937C59.5703 38.3789 57.6563 46.5234 51.5625 50.7617C47.207 53.7891 41.25 53.5156 37.7344 51.875C30.4883 48.4961 28.0664 40.4297 28.5937 32.8906C29.4336 20.9961 36.582 15.7227 43.3008 15.8008C52.4609 15.7617 57.3242 22.0117 58.5742 31.0937ZM87.5 10.9375V76.5625C87.5 82.5977 82.5977 87.5 76.5625 87.5H10.9375C4.90234 87.5 0 82.5977 0 76.5625V10.9375C0 4.90234 4.90234 0 10.9375 0H76.5625C82.5977 0 87.5 4.90234 87.5 10.9375ZM64.4531 54.9219C64.4531 54.9219 64.4336 48.2813 64.4336 12.4805H58.7695V20.3516C58.6133 20.4102 58.5352 20.2539 58.457 20.1172C56.582 16.0742 51.4453 11.0742 43.6133 11.1328C33.4766 11.2109 26.582 17.2266 23.9648 26.3281C23.125 29.2383 22.832 32.207 22.8906 35.2344C23.2227 50.4492 31.6992 58.2422 44.8438 57.7344C50.4883 57.5195 55.4883 54.4141 58.3203 48.9062C58.418 48.7109 58.5352 48.5352 58.6523 48.3398C58.6914 48.3594 58.7305 48.3594 58.7695 48.3789C58.8281 49.1211 58.8086 54.375 58.7891 55.1172C58.75 58.0078 58.3984 60.8789 57.3828 63.6133C55.8594 67.7148 53.0273 70.3906 48.6914 71.3281C45.2148 72.0898 41.7383 72.0703 38.3008 71.0938C34.1016 69.9023 31.1719 67.3828 30.2734 62.9297C30.2148 62.6172 30.0195 62.6758 29.8242 62.6758H24.5898C24.7461 64.7461 25.2148 66.6406 26.25 68.3789C30.9766 76.2891 42.4023 77.8516 51.2891 75.6836C61.0352 73.2812 64.4336 64.9609 64.4531 54.9219Z" fill="url(#paint0_linear_92_60)"/>
<defs>
<linearGradient id="paint0_linear_92_60" x1="44" y1="-16.5" x2="44" y2="121" gradientUnits="userSpaceOnUse">
<stop stop-color="#98E19A"/>
<stop offset="1" stop-color="#C5F5C2"/>
</linearGradient>
</defs>
</svg>
